<svg viewBox="0 0 140 36" xmlns="http://www.w3.org/2000/svg">
    <g id="Page-1" stroke="none" strokeWidth="1" fill="none" fillRule="evenodd">
        <g id="Bioz_Logo_NoShadow">
            <path fill="#FFFFFF" d="M0,0.225 C0.538855932,0.194237288 1.05457627,0.179364407 1.55097458,0.179491525 C8.96466102,0.179872881 11.7136017,3.49741525 11.9888136,6.85436441 L6.87927966,6.85436441 L6.87927966,9.66902542 C6.87927966,12.7819068 8.99834746,15.5884322 11.8095763,16.7970763 L7.62927966,16.7898305 C3.69661017,16.7898305 0,13.6016949 0,9.66902542 L0,0.225 Z M26.402161,20.1572034 C26.402161,17.044322 24.2833475,14.3649153 21.4718644,13.1563983 L25.652161,13.1635169 C29.5850847,13.1635169 33.2814407,16.2245339 33.2814407,20.1572034 L33.2814407,29.6012288 C24.6944492,30.0903814 21.5862712,26.5535593 21.2927542,22.9719915 L26.402161,22.9719915 L26.402161,20.1572034 Z M6.32936441,0 L12.4991949,0.00737288136 C16.7040254,0.00737288136 20.1286017,3.07881356 20.1286017,7.40529661 L20.1082627,22.7112712 C20.2920763,27.5532203 24.2094915,29.5278814 27.0280932,29.9895763 L20.8582627,29.9820763 C16.9255932,29.9820763 13.2289831,26.6439407 13.2289831,22.7112712 L13.2491949,7.40529661 C13.0655085,2.56347458 9.1479661,0.461822034 6.32936441,0 Z M40.944178,24.4287585 L40.944178,7.15676695 C43.6648983,7.15676695 46.427822,9.26617373 46.4255339,12.7846907 L46.4124407,24.4287585 C46.3782458,27.5758347 48.8002373,29.5146483 50.6357034,29.9656653 L46.770661,29.9599449 C44.1100678,30.0761314 40.944178,28.2794364 40.944178,24.4287585 Z M76.4285975,29.717339 C73.7078771,29.717339 70.9580466,27.6079322 70.9602076,24.0894153 L70.9602064,13.6199237 C73.6810551,13.6199237 76.4439788,15.7293305 76.4418178,19.2479746 L76.4285975,29.717339 Z M63.0744915,13.6292542 C65.7952119,13.6292542 69.0644492,16.1404831 69.0644492,19.257178 L69.0644492,29.9645085 L53.8155508,29.9645085 L53.8155508,29.9599322 C51.1549576,30.0761186 47.1142373,27.9707797 47.1142373,24.4287458 L47.1142373,24.3942966 L63.6821186,24.3942966 L63.6821186,20.4103983 L63.6802119,20.4103983 C63.7229237,19.5734492 63.041822,19.0269661 62.3317373,19.0657373 L47.1142373,19.0657373 L47.1142373,13.6292542 L63.0744915,13.6292542 Z M78.3859449,13.6292034 L100.447258,13.6292034 C103.168106,13.6292034 106.437343,16.1404322 106.437343,19.2572542 L106.437343,29.9644576 L84.3759025,29.9644576 C81.6550551,29.9644576 78.3859449,27.4532288 78.3859449,24.3365339 L78.3859449,13.6292034 Z M100.931581,24.3942458 L100.929547,20.4103475 C100.971623,19.5733983 100.301453,19.0269153 99.6028093,19.0656864 L83.9229788,19.0724237 L83.9250127,23.056322 C83.8829364,23.8932712 84.5531059,24.4396271 85.2516229,24.4009831 L100.931581,24.3942458 Z M137.586191,13.6267754 C137.702123,15.8603771 137.138987,17.3771568 135.045597,18.495928 L135.014835,18.5123263 L113.516275,29.9747415 L108.218225,29.9747415 C108.102292,27.7412669 108.665301,26.2244873 110.758818,25.1058432 L110.789453,25.0894449 L121.652886,19.2282585 L108.404581,19.2282585 L108.404581,13.6267754 L137.600544,13.6267754 L137.586191,13.6267754 Z M115.233305,29.9748051 L125.498136,24.4101864 L137.383729,24.4101864 L137.383729,29.9748051 L115.233305,29.9748051 Z"></path>
        </g>
    </g>
</svg>