
<svg width="239px" height="304px" viewBox="0 0 239 304" version="1.1" xmlns="http://www.w3.org/2000/svg" xmlns:xlink="http://www.w3.org/1999/xlink">
    <g id="Page-1" stroke="none" stroke-width="1" fill="none" fill-rule="evenodd">
        <g id="csv-svg" transform="translate(0.842000, 0.000000)">
            <polygon id="Path" fill="#E4E4E4" fill-rule="nonzero" points="186.979 0 1.42108547e-14 0 1.42108547e-14 303.188 237.504 303.188 237.504 50.525"></polygon>
            <polygon id="Path" fill="#007934" fill-rule="nonzero" transform="translate(180.158000, 238.000000) scale(-1, 1) rotate(90.000000) translate(-180.158000, -238.000000) " points="241.158 242 119.158 242 119.158 234 236.26104 234"></polygon>
            <polygon id="Path" fill="#007934" fill-rule="nonzero" transform="translate(187.526500, 238.131500) rotate(90.000000) translate(-187.526500, -238.131500) " points="248.5265 241.6315 126.5265 241.6315 126.5265 234.6315 243.62954 234.6315"></polygon>
            <rect id="Rectangle" fill="#E4E4E4" fill-rule="nonzero" transform="translate(185.658000, 211.000000) rotate(90.000000) translate(-185.658000, -211.000000) " x="145.658" y="187.5" width="80" height="47"></rect>
            <rect id="Rectangle" fill="#E4E4E4" fill-rule="nonzero" transform="translate(191.000000, 234.500000) rotate(90.000000) translate(-191.000000, -234.500000) " x="133" y="231" width="116" height="7"></rect>
            <rect id="Rectangle" fill="#E4E4E4" transform="translate(177.500000, 234.500000) rotate(90.000000) translate(-177.500000, -234.500000) " x="119.5" y="231.5" width="116" height="6"></rect>
            <polygon id="Path" fill="#007934" fill-rule="nonzero" points="194.798 25.263 1.42108547e-14 25.263 1.42108547e-14 0 186.979 0"></polygon>
            <g id="Group" transform="translate(59.655000, 217.700000)" fill="#A4A9AD" fill-rule="nonzero">
                <path d="M22.375,10.284 C19.393,10.284 17.064,11.507 15.393,13.95 C13.722,16.394 12.886,19.764 12.886,24.059 C12.886,32.988 16.282,37.452 23.074,37.452 C25.126,37.452 27.115,37.167 29.041,36.596 C30.966,36.025 32.901,35.337 34.849,34.533 L34.849,45.134 C30.977,46.847 26.597,47.704 21.709,47.704 C14.705,47.704 9.336,45.673 5.602,41.61 C1.868,37.548 0,31.676 0,23.995 C0,19.192 0.904,14.972 2.714,11.332 C4.523,7.692 7.125,4.894 10.522,2.937 C13.918,0.98 17.912,2.84217094e-14 22.502,2.84217094e-14 C27.518,2.84217094e-14 32.31,1.09 36.88,3.27 L33.039,13.141 C31.326,12.336 29.611,11.66 27.898,11.11 C26.184,10.56 24.344,10.284 22.375,10.284 Z" id="Path"></path>
                <path d="M74.235,32.978 C74.235,35.856 73.506,38.411 72.044,40.643 C70.585,42.875 68.479,44.61 65.729,45.848 C62.978,47.085 59.752,47.704 56.048,47.704 C52.959,47.704 50.367,47.487 48.273,47.054 C46.178,46.62 43.999,45.863 41.735,44.784 L41.735,33.612 C44.126,34.839 46.612,35.798 49.193,36.484 C51.775,37.173 54.144,37.516 56.302,37.516 C58.164,37.516 59.529,37.194 60.397,36.547 C61.264,35.902 61.699,35.071 61.699,34.056 C61.699,33.421 61.524,32.866 61.175,32.39 C60.826,31.913 60.265,31.432 59.493,30.946 C58.721,30.46 56.663,29.466 53.32,27.963 C50.294,26.588 48.024,25.255 46.511,23.964 C44.998,22.673 43.877,21.193 43.147,19.521 C42.417,17.849 42.052,15.871 42.052,13.585 C42.052,9.312 43.607,5.98 46.718,3.588 C49.827,1.197 54.102,0.001 59.54,0.001 C64.343,0.001 69.24,1.112 74.234,3.334 L70.393,13.015 C66.056,11.026 62.311,10.031 59.159,10.031 C57.529,10.031 56.345,10.317 55.604,10.888 C54.863,11.459 54.493,12.168 54.493,13.015 C54.493,13.925 54.964,14.74 55.905,15.458 C56.846,16.178 59.401,17.489 63.57,19.394 C67.569,21.193 70.346,23.123 71.901,25.186 C73.458,27.249 74.235,29.847 74.235,32.978 Z" id="Path"></path>
                <path d="M107.467,0.668 L121.494,0.668 L106.292,47.069 L91.533,47.069 L76.394,0.668 L90.486,0.668 L96.802,24.187 C98.114,29.414 98.833,33.052 98.96,35.105 C99.108,33.624 99.403,31.772 99.849,29.55 C100.292,27.328 100.684,25.583 101.023,24.314 L107.467,0.668 Z" id="Path"></path>
            </g>
            <polygon id="Path" fill="#D1D3D3" fill-rule="nonzero" points="186.979 50.525 237.504 50.525 186.979 0"></polygon>
            <g id="Group" transform="translate(61.470000, 80.344000)" fill="#007934" fill-rule="nonzero">
                <rect id="Rectangle" x="40.645" y="0" width="33.274" height="15.418"></rect>
                <rect id="Rectangle" x="81.29" y="0" width="33.273" height="15.418"></rect>
                <rect id="Rectangle" x="40.645" y="22.317" width="33.274" height="15.419"></rect>
                <rect id="Rectangle" x="81.29" y="22.317" width="33.273" height="15.419"></rect>
                <rect id="Rectangle" x="40.645" y="44.635" width="33.274" height="15.418"></rect>
                <rect id="Rectangle" x="81.29" y="44.635" width="33.273" height="15.418"></rect>
                <rect id="Rectangle" x="-1.42108547e-14" y="44.635" width="33.273" height="15.418"></rect>
                <rect id="Rectangle" x="40.645" y="66.954" width="33.274" height="15.418"></rect>
                <rect id="Rectangle" x="81.29" y="66.954" width="33.273" height="15.418"></rect>
                <rect id="Rectangle" x="-1.42108547e-14" y="66.954" width="33.273" height="15.418"></rect>
                <polygon id="Path" points="32.776 35.818 22.736 35.818 16.474 25.777 10.278 35.818 0.457 35.818 11.113 19.383 1.094 3.696 10.718 3.696 16.518 13.628 22.099 3.696 32.008 3.696 21.835 20.065"></polygon>
            </g>
        </g>
    </g>
</svg>