<svg width="16" height="16" viewBox="0 0 16 16" fill="none" xmlns="http://www.w3.org/2000/svg">
<path fill-rule="evenodd" clip-rule="evenodd" d="M10.1236 8.98398H11.5636L12.5636 13.284L13.5636 8.98398H15.0036L13.3436 14.984H11.8136L10.1236 8.98398ZM4.17361 12.464L5.38361 12.984C5.31797 13.3721 5.18962 13.747 5.00361 14.094C4.84943 14.3757 4.62565 14.6133 4.35361 14.784C4.04595 14.9463 3.70127 15.0256 3.35361 15.014C2.93875 15.0317 2.52702 14.9349 2.16361 14.734C1.8094 14.4837 1.53506 14.1365 1.37361 13.734C1.1147 13.1629 0.988211 12.5408 1.00361 11.914C0.953858 11.1107 1.16045 10.3123 1.59361 9.63398C1.97765 9.10024 2.60701 8.79875 3.26361 8.83398C3.74745 8.80437 4.22296 8.97007 4.58361 9.29398C4.95443 9.68085 5.20461 10.1673 5.30361 10.694L4.08361 11.054C4.05865 10.9154 4.01491 10.7808 3.95361 10.654C3.8875 10.5263 3.79142 10.4165 3.67361 10.334C3.56233 10.2558 3.42961 10.2139 3.29361 10.214C2.97219 10.2216 2.68747 10.4233 2.57361 10.724C2.4281 11.0961 2.36333 11.4949 2.38361 11.894C2.34693 12.3626 2.42591 12.833 2.61361 13.264C2.7418 13.4903 2.98351 13.6284 3.24361 13.624C3.48051 13.6387 3.70793 13.5287 3.84361 13.334C4.01698 13.0721 4.12972 12.7749 4.17361 12.464ZM5.81361 12.984L7.13361 12.874C7.1386 13.101 7.19683 13.3236 7.30361 13.524C7.41891 13.7543 7.65605 13.8982 7.91361 13.894C8.08478 13.9029 8.25059 13.8328 8.36361 13.704C8.46996 13.5864 8.52722 13.4325 8.52361 13.274C8.52224 13.1211 8.4694 12.9731 8.37361 12.854C8.17204 12.6844 7.9315 12.5676 7.67361 12.514C7.18035 12.3975 6.72983 12.1445 6.37361 11.784C6.10073 11.4463 5.96824 11.0167 6.00361 10.584C6.00387 10.2826 6.07224 9.98521 6.20361 9.71398C6.33102 9.44011 6.54078 9.21286 6.80361 9.06398C7.14492 8.8955 7.52339 8.81637 7.90361 8.83398C8.3768 8.79936 8.84439 8.95402 9.20361 9.26398C9.54171 9.63338 9.73368 10.1133 9.74361 10.614L8.44361 10.714C8.42857 10.5033 8.35208 10.3016 8.22361 10.134C8.09632 10.0109 7.91832 9.95529 7.74361 9.98398C7.60888 9.97556 7.47725 10.0267 7.38361 10.124C7.30336 10.2149 7.26049 10.3328 7.26361 10.454C7.2618 10.5504 7.29767 10.6436 7.36361 10.714C7.49535 10.8258 7.65384 10.9016 7.82361 10.934C8.28053 11.0461 8.71853 11.2247 9.12361 11.464C9.37212 11.6257 9.56975 11.8546 9.69361 12.124C9.80845 12.403 9.86626 12.7022 9.86361 13.004C9.85531 13.343 9.777 13.6767 9.63361 13.984C9.49094 14.2932 9.25716 14.5514 8.96361 14.724C8.63829 14.9091 8.26757 14.9991 7.89361 14.984C7.30292 15.0511 6.71572 14.8318 6.31361 14.394C6.02031 13.979 5.84729 13.491 5.81361 12.984ZM10.6836 1.09398L14.1336 4.57398H10.6836V1.09398ZM9.25361 6.21398V4.67398V0.983978H1.00361V7.98398H15.0036V6.21398H9.25361Z" fill="#666"/>
</svg>
