<svg width="14" height="15" viewBox="0 0 14 15" fill="none" xmlns="http://www.w3.org/2000/svg">
<path fill-rule="evenodd" clip-rule="evenodd" d="M7 2.77966C9.76142 2.77966 12 5.01824 12 7.77966C12 10.5411 9.76142 12.7797 7 12.7797C4.23858 12.7797 2 10.5411 2 7.77966C2 5.01824 4.23858 2.77966 7 2.77966ZM7 0.779663C3.13401 0.779663 0 3.91367 0 7.77966C0 11.6457 3.13401 14.7797 7 14.7797C10.866 14.7797 14 11.6457 14 7.77966C14 5.92315 13.2625 4.14267 11.9497 2.82992C10.637 1.51716 8.85652 0.779663 7 0.779663ZM6 7.25966V11.6597H8V7.25966H6ZM6 4.01966V6.01966H8V4.01966H6Z" fill="#A2A2A2"/>
</svg>
