<svg xmlns="http://www.w3.org/2000/svg" viewBox="0 0 36 36" version="1.1">
  <g id="Page-1" stroke="none" strokeWidth="1" fill="none" fillRule="evenodd">
    <g id="BStar_Vector_Flat" fill="#F7B629">
      <path d="M26.4217355,20.6463086 C26.5442265,20.8339215 26.6613917,21.0188543 26.7625799,21.2145079 C27.020876,21.7130223 27.1966239,22.2383387 27.2898235,22.7931371 C27.3670461,23.2460884 27.3750346,23.7017199 27.3404176,24.1546712 C27.2978121,24.7094696 27.1540183,25.2401463 26.9356649,25.7520617 C26.6693803,26.3738647 26.2965817,26.9286631 25.8172694,27.4030559 C25.0716723,28.1401069 24.1876073,28.6144997 23.1624113,28.8235542 C22.8428697,28.8878786 22.5206653,28.9200408 22.195798,28.9200408 C18.0071403,28.9173606 13.8158198,28.9200408 9.62716217,28.9200408 C9.5206483,28.9200408 9.41679729,28.9200408 9.31028342,28.8851984 C8.88156512,28.7404684 8.64190893,28.2660756 8.77771411,27.853327 C8.91618213,27.4298578 9.05465015,27.0090687 9.19045533,26.5855994 C9.30495773,26.2291347 9.41946013,25.8726701 9.53396254,25.5162054 C9.62449932,25.2347859 9.83752704,24.9908891 10.2609197,24.961407 C10.3088509,24.9587268 10.3567821,24.961407 10.4047134,24.961407 C14.2951322,24.961407 18.1882139,24.961407 22.0786328,24.961407 C22.2730206,24.961407 22.4594198,24.9372854 22.6404934,24.85956 C23.1251315,24.6531857 23.4713015,24.151991 23.4047304,23.5543097 C23.3461477,23.0075519 22.9626978,22.576042 22.4088257,22.4500733 C22.3103004,22.4286318 22.2091122,22.4232715 22.1079241,22.4232715 C21.6658915,22.4259517 21.223859,22.4232715 20.7818265,22.4232715 C17.6050505,22.4232715 14.4282745,22.4232715 11.2514986,22.4259517 C10.9718997,22.4259517 10.7295806,22.3455461 10.5138901,22.1686539 C10.4553075,22.1204105 10.3967248,22.0775276 10.3354794,22.0319644 C10.1304402,21.8765137 9.92540098,21.7237431 9.72302464,21.5682923 C9.35555181,21.2841927 8.98807899,20.9974129 8.62060616,20.7159934 C8.47148675,20.6007454 8.32236734,20.4908578 8.17324793,20.37829 C8.13064239,20.3461278 8.09069969,20.3112854 8.05075699,20.276443 C7.72056402,20.0003839 7.71257548,19.4697072 7.97886013,19.1802472 C8.10401392,19.0462379 8.25047048,18.9577918 8.4342069,18.9363503 C8.50344091,18.9283097 8.57267492,18.9283097 8.64190893,18.9283097 C13.0995141,18.9283097 17.5544564,18.9283097 22.0120616,18.9283097 C22.2277522,18.9283097 22.4354542,18.9041881 22.6378305,18.8211023 C23.359462,18.5209216 23.6683522,17.5962576 23.1703999,16.9101301 C22.9334065,16.5831475 22.6112021,16.4116157 22.2064494,16.3901742 C21.9934217,16.3794534 21.7803939,16.3794534 21.5673662,16.3794534 C15.8156176,16.3794534 10.063869,16.3767733 4.3121204,16.3821336 C3.97393888,16.3821336 3.69167714,16.2829668 3.42805533,16.0792727 C2.56795589,15.4199471 1.6998679,14.768662 0.834442765,14.1146968 C0.656032045,13.9806875 0.474958477,13.8466783 0.296547757,13.712669 C0.0622172578,13.5357768 -0.0309823724,13.2918799 0.00896032625,13.0051001 C0.0515658715,12.7183202 0.219325206,12.5173063 0.490935557,12.4127791 C0.565495261,12.383297 0.642717812,12.3672159 0.725266056,12.3725763 C0.767871601,12.3752565 0.810477146,12.3725763 0.853082691,12.3725763 C7.96288305,12.3725763 15.0753463,12.3725763 22.1851466,12.3725763 C22.9147666,12.3725763 23.6124324,12.5280271 24.2754812,12.8282078 C25.2926886,13.2891997 26.083554,14.0074894 26.6480775,14.9750363 C26.9729448,15.5298347 27.1833097,16.127516 27.2898235,16.7654001 C27.3670461,17.2183515 27.3750346,17.673983 27.3377548,18.1296145 C27.2871607,18.7272958 27.1300527,19.2981753 26.8770823,19.8449331 C26.7679056,20.0781093 26.6427518,20.3032448 26.5042838,20.5203399 C26.4749925,20.565903 26.448364,20.6114662 26.4190727,20.6570293 L26.4217355,20.6463086 Z" id="Shape"></path>
      <path d="M18.1350552,9.76248372 C17.19233,9.76248372 16.2469418,9.76248372 15.3042166,9.76248372 C15.2083462,9.76248372 15.1124759,9.75980436 15.0219316,9.72497281 C14.5958412,9.57492917 14.3934482,9.11676022 14.5345907,8.70949893 C14.7662774,8.04234063 14.9793226,7.36714428 15.197694,6.69730663 C15.4533482,5.91493625 15.7116656,5.12988652 15.969983,4.34751615 C16.2629202,3.45797175 16.5531943,2.56842735 16.8461315,1.6762036 C16.9553172,1.34128477 17.0591767,1.0036866 17.1763516,0.668767773 C17.2855373,0.355283753 17.5039087,0.146294406 17.8208135,0.049837784 C17.9539667,0.00964752498 18.0924462,-0.00910792923 18.2309256,0.00428882378 C18.5052213,0.0284029792 18.7448972,0.132897653 18.9286487,0.349925051 C19.0165299,0.451740374 19.0804435,0.569631801 19.1230525,0.69824063 C19.2109337,0.96885504 19.2988148,1.2367901 19.386696,1.50740451 C19.5278385,1.93342126 19.6663179,2.36211735 19.8074603,2.7881341 C20.321432,4.3609129 20.8380667,5.93101235 21.3520383,7.50379116 C21.4532348,7.80923713 21.5491052,8.1146831 21.6503017,8.42012906 C21.6795954,8.50586828 21.7115522,8.5916075 21.7408459,8.67734672 C21.8047595,8.85954256 21.8074225,9.04441775 21.7514981,9.22929295 C21.6689431,9.50526606 21.3760059,9.76516307 21.0431227,9.76248372 C21.0058398,9.76248372 20.9685569,9.76248372 20.931274,9.76248372 C19.999201,9.76248372 19.0644651,9.76248372 18.1323921,9.76248372 L18.1350552,9.76248372 Z" id="Shape"></path>
      <path d="M32.3591091,12.6559647 C33.3065771,12.6559647 34.2540452,12.6559647 35.2015132,12.6559647 C35.3904746,12.6559647 35.5581445,12.7095898 35.704523,12.8275651 C35.8934843,12.9803968 35.9999414,13.1841723 35.9999414,13.4254855 C36.0026028,13.6667986 35.9147757,13.8732554 35.7125072,14.0234058 C35.318616,14.3156629 34.9273862,14.6132824 34.5361565,14.9082207 C33.9905639,15.3211343 33.4476328,15.7313666 32.9020402,16.1442802 C32.7902603,16.2273992 32.6811418,16.3131994 32.5693618,16.3936371 C32.3830619,16.5250187 32.1754706,16.6000939 31.9439264,16.5974127 C31.4595467,16.5920502 30.975167,16.5974127 30.4907872,16.5947314 C30.115526,16.5947314 29.8759976,16.4204497 29.7722019,16.05848 C29.567272,15.3613531 29.274515,14.7017639 28.9178838,14.0716685 C28.8912695,14.0260871 28.8593324,13.9805057 28.8327181,13.9376056 C28.7023082,13.7338301 28.6623868,13.5112857 28.7023082,13.2753351 C28.7555368,12.9750343 29.0296637,12.6774147 29.404925,12.6559647 C29.4528307,12.6532834 29.5007363,12.6532834 29.548642,12.6532834 C30.4854644,12.6532834 31.4222867,12.6532834 32.3591091,12.6532834 L32.3591091,12.6559647 Z" id="Shape"></path>
      <path d="M7.28736193,35.9984799 C7.17021593,36.0065302 7.06904438,35.9823795 6.97319764,35.9313948 C6.76552972,35.8240585 6.5844859,35.6872047 6.49396398,35.4591151 C6.42740375,35.2927438 6.41409171,35.1263726 6.4700023,34.9573179 C6.54987458,34.7077611 6.62974685,34.4582042 6.70961913,34.2059639 C6.9305991,33.5109615 7.14891665,32.815959 7.36989662,32.1209565 C7.39119589,32.0538714 7.40983276,31.9867862 7.44178167,31.9250678 C7.52964117,31.7479629 7.67341127,31.6352598 7.86244233,31.5789083 C7.95030183,31.5520742 8.04082374,31.544024 8.13134566,31.5413406 C8.96201734,31.5413406 9.79268902,31.5413406 10.6233607,31.5413406 C11.0014228,31.5413406 11.3794849,31.5413406 11.757547,31.5413406 C11.8640434,31.5413406 11.9678774,31.5520742 12.0663865,31.6057424 C12.3246402,31.7452795 12.4284742,32.078022 12.2926913,32.3409959 C12.25808,32.4107645 12.2048318,32.4617493 12.1462588,32.5073672 C11.8693682,32.7193563 11.5951401,32.9286621 11.3209119,33.1406513 C10.4556289,33.8034529 9.59034592,34.463571 8.72772533,35.1263726 C8.43486031,35.3490954 8.1446577,35.577185 7.84114305,35.7864908 C7.76127078,35.8401589 7.6813985,35.8938271 7.59353899,35.9340782 C7.49502985,35.9770127 7.3938583,36.0065302 7.29002434,35.9957965 L7.28736193,35.9984799 Z" id="Shape"></path>
      <path d="M26.2752882,31.5467043 C26.8294742,31.5467043 27.3836603,31.5467043 27.9378464,31.5467043 C28.0390919,31.5467043 28.1403375,31.5386587 28.241583,31.5520681 C28.4653889,31.5842505 28.6439008,31.6861614 28.7637968,31.8846195 C28.7984334,31.9409387 28.8170839,32.0026217 28.8357344,32.0616227 C29.0462185,32.7240438 29.259367,33.3891468 29.4698512,34.0515679 C29.5631036,34.3412095 29.6456987,34.6362149 29.7496085,34.9231746 C29.8615115,35.2396349 29.730958,35.6016869 29.4805086,35.7840539 C29.4112353,35.8350093 29.3446264,35.8859648 29.2673601,35.9235109 C29.056876,36.02274 28.8463918,36.0254219 28.6332433,35.9315565 C28.5399909,35.8913285 28.4573958,35.8323275 28.3748008,35.7733264 C27.8605801,35.4166381 27.3756672,35.0224037 26.8774327,34.6442605 C25.9502367,33.9389295 25.0283695,33.2282348 24.1038379,32.5229038 C24.0398934,32.4746302 23.9786132,32.4263566 23.9386479,32.3512644 C23.7388212,31.9704393 24.0212429,31.5467043 24.3915884,31.5440225 C24.4768478,31.5440225 24.5621072,31.5413406 24.6473666,31.5413406 C25.1908952,31.5413406 25.7344239,31.5413406 26.2779525,31.5413406 C26.2779525,31.5440225 26.2779525,31.5440225 26.2779525,31.5467043 L26.2752882,31.5467043 Z" id="Shape"></path>
    </g>
  </g>
</svg>
